:SAMPLES-PER-SECOND 30
:FULLY-SPECIFIED
:DEGREES
443
root  -1.25265 27.638 -23.1987 20.8331 44.3829 4.5747
RightUpLeg  -9.08008 -27.7326 0.956441
RightLeg  64.4404 -6.58241 -11.6751
RightFoot  -14.6737 0.548331 4.63449
RightToes  -34.0387 -0.172698 -0.279033
Spine  13.2169 5.63119 -4.75815
Spine1  19.5517 17.3641 -12.1162
HEad  -13.5852 -47.2825 62.2681
LeftShoulder1  0 -2.42657e-020 -4.95415e-022
LeftArm  -2.56378 -13.1528 -101.002
LeftForeArm  -15.2007 -41.2735 -8.84953
LeftHand  -0.338786 4.52356 -8.91808
RightShoulder  0 2.42657e-020 1.07489e-018
RightArm  -10.8189 49.6652 88.5368
RightForeArm  40.5253 21.5193 3.97041
RightHand  0.628754 20.6757 3.81703
LeftUpLeg  -62.2747 -2.04194 5.26316
LeftLeg  67.8799 -7.93642 -15.9529
LeftFoot  -8.90737 0.262263 3.36619
LeftToes  -38.6349 2.34596e-006 -6.06653e-008
444
root  -0.558714 27.6652 -24.2637 18.6806 39.3422 3.15388
RightUpLeg  -11.7718 -26.9232 -0.6188
RightLeg  69.5155 -4.80946 -10.7342
RightFoot  -14.0175 0.438644 3.94458
RightToes  -36.7259 -0.192871 -0.29589
Spine  12.4102 3.63786 -4.09752
Spine1  18.8849 12.6412 -11.0473
HEad  -13.0391 -47.7199 61.6936
LeftShoulder1  0 -2.42657e-020 -4.95415e-022
LeftArm  -6.21073 -9.95386 -101.85
LeftForeArm  -12.1128 -37.3837 -7.69786
LeftHand  -0.311003 3.36921 -10.8924
RightShoulder  0 2.42657e-020 1.07489e-018
RightArm  -10.1449 39.9841 88.4409
RightForeArm  39.918 27.4352 5.23701
RightHand  0.238876 19.5685 1.75573
LeftUpLeg  -61.3853 1.28497 2.92572
LeftLeg  69.0851 -6.92513 -14.7707
LeftFoot  -9.68631 0.267348 3.15446
LeftToes  -34.0478 2.34596e-006 -6.06653e-008
445
root  0.0305247 27.8004 -25.465 17.2217 33.3484 1.80611
RightUpLeg  -15.0173 -25.1027 -2.06896
RightLeg  74.2961 -3.8748 -11.0862
RightFoot  -12.7833 0.356882 3.5628
RightToes  -36.2634 -0.189342 -0.293056
Spine  11.2925 1.46741 -3.50307
Spine1  17.8209 7.40795 -9.91935
HEad  -12.1061 -46.3355 59.2991
LeftShoulder1  0 -2.42657e-020 -4.95415e-022
LeftArm  -8.65259 -6.90343 -101.201
LeftForeArm  -12.1402 -36.4598 -7.44065
LeftHand  -0.261791 2.74233 -11.2458
RightShoulder  0 2.42657e-020 1.07489e-018
RightArm  -7.75023 31.9344 87.5199
RightForeArm  37.3864 32.8051 6.51697
RightHand  -0.182478 18.6389 -0.742168
LeftUpLeg  -60.825 3.77363 1.33295
LeftLeg  68.9851 -5.43997 -11.663
LeftFoot  -10.2012 0.223303 2.50136
LeftToes  -29.4472 2.34596e-006 -6.06653e-008
446
root  0.582352 28.0125 -26.519 15.079 25.9926 -0.000977864
RightUpLeg  -16.264 -21.3758 -3.22847
RightLeg  77.0124 -3.56244 -11.9897
RightFoot  -10.9604 0.266822 3.15833
RightToes  -34.7275 -0.177793 -0.283444
Spine  10.5818 -0.254859 -2.97165
Spine1  17.5419 2.96107 -8.38582
HEad  -12.0964 -45.5127 59.1069
LeftShoulder1  0 -2.42657e-020 -4.95415e-022
LeftArm  -8.75382 -4.72157 -99.4859
LeftForeArm  -11.9554 -37.0607 -7.60762
LeftHand  -0.270121 2.73158 -11.6335
RightShoulder  0 2.42657e-020 1.07489e-018
RightArm  -6.56255 25.292 86.7027
RightForeArm  37.3436 38.3383 8.01263
RightHand  -0.696916 18.3027 -3.95553
LeftUpLeg  -59.5015 8.47225 0.370953
LeftLeg  68.9117 -4.44566 -9.55064
LeftFoot  -10.8127 0.193611 2.04555
LeftToes  -24.4044 2.34596e-006 -6.06653e-008
447
root  1.10576 28.4146 -27.6768 15.092 17.9725 -0.206395
RightUpLeg  -17.8646 -18.0224 -5.49839
RightLeg  77.504 -3.67643 -12.739
RightFoot  -7.07557 0.111955 2.18846
RightToes  -34.3492 -0.174988 -0.281029
Spine  9.22383 -1.99049 -2.87871
Spine1  16.0392 -1.68886 -7.41619
HEad  -12.6022 -46.4039 60.5257
LeftShoulder1  0 -2.42657e-020 -4.95415e-022
LeftArm  -8.9419 -2.53319 -97.2354
LeftForeArm  -8.23832 -37.101 -7.62749
LeftHand  -0.162727 1.78595 -10.7398
RightShoulder  0 2.42657e-020 1.07489e-018
RightArm  -3.81816 17.7974 85.7012
RightForeArm  38.0783 46.6484 10.7775
RightHand  -1.17326 17.5611 -7.21764
LeftUpLeg  -57.2468 5.9408 0.904032
LeftLeg  65.1137 -0.36036 -0.674616
LeftFoot  -10.9009 0.00922827 0.0967067
LeftToes  -25.1683 2.34596e-006 -6.06653e-008
448
root  1.53467 28.7821 -28.578 14.3423 10.3786 -1.43796
RightUpLeg  -16.5789 -15.9435 -6.98933
RightLeg  74.5003 -4.89798 -13.9994
RightFoot  -3.1086 0.0210397 1.15319
RightToes  -34.4895 -0.170118 -0.276758
Spine  8.39128 -3.13258 -2.35021
Spine1  15.188 -4.89163 -6.02292
HEad  -14.819 -48.7403 64.5269
LeftShoulder1  0 -2.42657e-020 -4.95415e-022
LeftArm  -8.74237 -0.31792 -95.368
LeftForeArm  -7.4843 -38.2258 -7.94885
LeftHand  -0.163881 1.75749 -10.9805
RightShoulder  0 2.42657e-020 1.07489e-018
RightArm  -0.96203 10.0811 83.9615
RightForeArm  42.4584 55.7523 15.0541
RightHand  -1.8239 16.7985 -11.9405
LeftUpLeg  -56.0579 10.4947 0.421088
LeftLeg  63.7356 0.981795 1.6915
LeftFoot  -10.5781 -0.0409954 -0.442845
LeftToes  -21.2547 2.34596e-006 -6.06653e-008
449
root  1.80899 29.1307 -29.4435 14.4086 2.09925 -2.48092
RightUpLeg  -15.5016 -13.9296 -8.48715
RightLeg  69.83 -6.72366 -14.9745
RightFoot  -3.61823 0.0320525 1.39258
RightToes  -33.4624 -0.168476 -0.275295
Spine  7.75888 -3.59362 -1.70556
Spine1  14.2458 -6.02661 -4.8624
HEad  -17.6748 -51.7877 68.6426
LeftShoulder1  0 -2.42657e-020 -4.95415e-022
LeftArm  -9.06969 2.08079 -94.4994
LeftForeArm  -4.97389 -40.4184 -8.60817
LeftHand  -0.106252 1.10802 -11.2544
RightShoulder  0 2.42657e-020 1.07489e-018
RightArm  2.32352 1.45862 81.4396
RightForeArm  50.3606 64.7756 22.0902
RightHand  -2.92098 16.9422 -19.0654
LeftUpLeg  -55.4518 15.467 0.298547
LeftLeg  62.4542 2.49336 4.09273
LeftFoot  -9.69505 -0.072461 -0.854408
LeftToes  -19.2659 2.34596e-006 -6.06653e-008
450
root  2.07393 29.4585 -30.4104 15.5618 -6.34042 -3.25395
RightUpLeg  -15.8277 -12.3162 -10.4889
RightLeg  64.1362 -7.60045 -13.2318
RightFoot  -3.56829 0.028173 1.28223
RightToes  -34.833 -0.178578 -0.284114
Spine  7.18414 -4.13773 -1.02795
Spine1  13.3481 -7.36519 -3.37253
HEad  -20.8499 -53.2071 72.1479
LeftShoulder1  0 -2.42657e-020 -4.95415e-022
LeftArm  -8.75781 4.89663 -93.4122
LeftForeArm  -2.35735 -43.9765 -9.77551
LeftHand  -0.0394222 0.396786 -11.5172
RightShoulder  0 2.42657e-020 1.07489e-018
RightArm  7.70896 -4.93536 79.3576
RightForeArm  59.7102 68.584 26.8641
RightHand  -4.42272 15.7655 -30.8093
LeftUpLeg  -55.592 19.6905 0.0069259
LeftLeg  60.7738 4.69593 7.19944
LeftFoot  -8.55015 -0.098239 -1.31413
LeftToes  -17.8642 2.34596e-006 -6.06653e-008
451
root  2.35451 29.6548 -31.4656 17.5171 -15.2071 -3.89077
RightUpLeg  -17.871 -9.31008 -12.6499
RightLeg  57.9348 -6.85394 -9.4821
RightFoot  -2.78234 0.0116198 0.856232
RightToes  -37.722 -0.200546 -0.301895
Spine  6.83138 -4.65109 -0.382952
Spine1  12.7717 -8.63495 -1.89973
HEad  -21.3504 -52.6237 71.8326
LeftShoulder1  0 -2.42657e-020 -4.95415e-022
LeftArm  -8.90443 7.06805 -92.6216
LeftForeArm  -1.16333 -47.2484 -10.9816
LeftHand  -0.0288417 0.280572 -11.8171
RightShoulder  0 2.42657e-020 1.07489e-018
RightArm  11.3986 -9.27315 77.7925
RightForeArm  67.3886 71.1154 31.2138
RightHand  -5.06139 14.8238 -37.1756
LeftUpLeg  -57.2607 24.9629 -1.19827
LeftLeg  59.9487 6.59943 9.75527
LeftFoot  -7.47658 -0.10367 -1.58657
LeftToes  -15.819 2.34596e-006 -6.06653e-008
452
root  2.53754 29.6723 -32.4982 19.342 -23.9458 -4.48694
RightUpLeg  -19.0175 -2.41356 -14.4882
RightLeg  48.9521 -4.93305 -5.00182
RightFoot  3.70887 0.0192979 -0.218436
RightToes  -63.5275 -0.4281 -0.406274
Spine  6.95763 -5.17487 0.0645167
Spine1  13.0632 -9.85932 -0.916187
HEad  -17.7308 -49.2393 65.641
LeftShoulder1  0 -2.42657e-020 -4.95415e-022
LeftArm  -9.75948 8.05502 -91.5644
LeftForeArm  0.929803 -48.9879 -11.6908
LeftHand  0.0581459 -0.520212 -13.3017
RightShoulder  0 2.42657e-020 1.07489e-018
RightArm  15.4628 -9.8149 76.6817
RightForeArm  69.9055 71.3763 31.7304
RightHand  -5.45281 13.6935 -42.9156
LeftUpLeg  -59.523 31.1891 -2.80613
LeftLeg  59.9988 7.75797 11.4394
LeftFoot  -6.41561 -0.0908509 -1.62093
LeftToes  -14.9727 2.34596e-006 -6.06653e-008
453
root  2.73251 29.4313 -33.5306 21.6733 -30.5357 -4.54468
RightUpLeg  -20.0381 6.27084 -16.6127
RightLeg  41.5305 -6.24516 -4.85445
RightFoot  -2.91761 0.00603979 0.614862
RightToes  -69.0156 -0.481114 -0.414666
Spine  6.95574 -5.94378 0.241731
Spine1  13.0677 -11.4473 -0.654686
HEad  -11.3671 -44.4905 56.7022
LeftShoulder1  0 -2.42657e-020 -4.95415e-022
LeftArm  -9.87801 8.56629 -90.0886
LeftForeArm  -0.689781 -50.3309 -12.267
LeftHand  0.0625472 -0.528393 -14.0549
RightShoulder  0 2.42657e-020 1.07489e-018
RightArm  17.8088 -9.13473 76.7401
RightForeArm  70.2919 71.1715 31.3108
RightHand  -5.65397 13.7621 -44.1567
LeftUpLeg  -63.544 34.821 -4.96291
LeftLeg  61.1316 8.88228 13.588
LeftFoot  -5.22697 -0.0719217 -1.57556
LeftToes  -15.182 2.34596e-006 -6.06653e-008
